<svg width="24" height="24" viewBox="0 0 24 24" fill="none" xmlns="http://www.w3.org/2000/svg">
<path fill-rule="evenodd" clip-rule="evenodd" d="M6 3.75C5.30964 3.75 4.75 4.30964 4.75 5V19C4.75 19.4142 4.41421 19.75 4 19.75C3.58579 19.75 3.25 19.4142 3.25 19V5C3.25 3.48122 4.48122 2.25 6 2.25H19.4C20.1456 2.25 20.75 2.85442 20.75 3.6V16.7143C20.75 17.1285 20.4142 17.4643 20 17.4643C19.5858 17.4643 19.25 17.1285 19.25 16.7143V3.75H6Z" fill="#02040F"/>
<path fill-rule="evenodd" clip-rule="evenodd" d="M5.25 17C5.25 16.5858 5.58579 16.25 6 16.25L20 16.25C20.4142 16.25 20.75 16.5858 20.75 17C20.75 17.4142 20.4142 17.75 20 17.75L6 17.75C5.58579 17.75 5.25 17.4142 5.25 17Z" fill="#02040F"/>
<path fill-rule="evenodd" clip-rule="evenodd" d="M5.25 21C5.25 20.5858 5.58579 20.25 6 20.25L20 20.25C20.4142 20.25 20.75 20.5858 20.75 21C20.75 21.4142 20.4142 21.75 20 21.75L6 21.75C5.58579 21.75 5.25 21.4142 5.25 21Z" fill="#02040F"/>
<path fill-rule="evenodd" clip-rule="evenodd" d="M6.75 17C6.75 16.5858 6.41421 16.25 6 16.25C4.48122 16.25 3.25 17.4812 3.25 19C3.25 20.5188 4.48122 21.75 6 21.75C6.41421 21.75 6.75 21.4142 6.75 21C6.75 20.5858 6.41421 20.25 6 20.25C5.30964 20.25 4.75 19.6904 4.75 19C4.75 18.3096 5.30964 17.75 6 17.75C6.41421 17.75 6.75 17.4142 6.75 17Z" fill="#02040F"/>
<path fill-rule="evenodd" clip-rule="evenodd" d="M8.25 7C8.25 6.58579 8.58579 6.25 9 6.25L15 6.25C15.4142 6.25 15.75 6.58579 15.75 7C15.75 7.41421 15.4142 7.75 15 7.75L9 7.75C8.58579 7.75 8.25 7.41421 8.25 7Z" fill="#02040F"/>
</svg>
