<svg width="176" height="30" viewBox="0 0 176 30" fill="none" xmlns="http://www.w3.org/2000/svg">
<path d="M0.115914 1.55567H4.07631C4.15359 1.57098 6.25592 1.55567 7.41308 1.55567C11.6106 1.55567 4.19222 12.2129 4.19222 12.2129H12.8858C13.0403 12.0444 14.6631 8.49203 17.7542 1.55567H22.3907C22.468 1.57098 22.5066 1.61692 22.5066 1.69348C22.468 1.69348 20.8066 5.19994 17.5223 12.2129V12.2818H17.5803C20.7229 11.8683 23.0089 12.6646 24.4385 14.6704C26.0485 16.6304 26.8534 18.7434 26.8534 21.0096V21.0785L26.9693 21.2852V29.8294C26.9693 29.9212 26.9307 29.9672 26.8534 29.9672H22.893C22.8157 29.9672 22.7771 29.9212 22.7771 29.8294V21.6298C22.6354 20.3895 22.4422 19.5703 22.1975 19.1722C21.618 17.8094 20.3236 17.128 18.3144 17.128H4.19222C4.19222 17.128 12.3743 29.9672 7.50711 29.9672C6.67299 29.9672 4.15359 29.9672 4.07631 29.9672H0.115914C0.038638 29.9672 0 29.9212 0 29.8294V1.69348C0.0128793 1.6016 0.0515173 1.55567 0.115914 1.55567Z" fill="black"/>
<path d="M38.1056 1.69348C38.17 1.69348 49.9481 1.69348 49.9481 1.69348C53.0392 1.69348 55.4154 3.46202 57.0768 6.9991C57.5405 8.43844 57.7723 9.5409 57.7723 10.3065C57.7723 10.3065 57.7723 29.7375 57.7723 29.8294C57.7723 29.9212 57.6564 29.9672 57.6564 29.9672H38.2215C35.7358 29.9672 33.63 28.5202 31.9042 25.6262C31.1314 24.0797 30.745 22.5408 30.745 21.0096V20.4584C30.745 17.6257 31.9042 15.1604 34.2225 13.0627C35.6263 12.0521 36.9593 11.5468 38.2215 11.5468H53.4835V10.3065C53.4835 8.92842 52.7107 7.80299 51.1652 6.9302C50.6243 6.74645 49.9095 6.65458 49.0208 6.65458H38.1056C38.0283 6.65458 37.5355 6.5614 37.5355 6.5614C37.5355 6.5614 34.9014 5.51557 35.0332 3.96075C35.1564 2.50645 37.5355 1.79355 37.5355 1.79355C37.5355 1.79355 38.0412 1.69348 38.1056 1.69348ZM34.9759 20.5273V21.0096C34.9759 22.8011 35.8646 24.0874 37.6419 24.8683C37.848 24.9142 38.0219 24.9372 38.1635 24.9372H53.4835V16.5998H38.3374C36.8692 16.5998 35.7873 17.5874 35.0918 19.5626C35.0145 19.8995 34.9759 20.2211 34.9759 20.5273Z" fill="black"/>
<path d="M70.9177 29.9672C69.9518 29.9672 69.0374 29.7605 68.1744 29.347C64.8516 27.6321 63.1901 24.5697 63.1901 20.1598V2.12987C63.1901 2.038 63.2288 1.99206 63.3061 1.99206H67.3051C67.3824 1.99206 68.4933 2.05274 69.2322 2.22699C76.1413 3.85616 67.421 20.9867 67.421 20.9867C67.421 21.1704 67.4403 21.4154 67.479 21.7216C68.0585 23.9113 69.2241 25.0061 70.9757 25.0061H81.1761C82.4898 25.0061 83.3463 24.8683 83.7456 24.5927C85.1236 23.8424 85.8127 22.3418 85.8127 20.0909C85.8127 20.0909 77.6852 3.83157 84.2464 2.22699C84.8917 2.0692 85.8513 1.99206 85.9286 1.99206H89.8697C89.947 1.99206 89.9856 2.038 89.9856 2.12987V20.022C89.9856 23.5285 88.9359 26.231 86.8366 28.1297C85.8707 29.0331 84.499 29.6456 82.7217 29.9672H70.9177Z" fill="black"/>
<path d="M115.032 4.70229H103.633C103.633 4.70229 101.763 4.82763 100.697 6.21819C99.2988 8.04153 100.095 8.90874 100.095 12.6296V14.3633C100.095 14.3633 106.849 10.2598 108.946 13.1545C110.395 15.1545 110.377 17.5512 108.946 19.5646C106.883 22.4668 100.095 18.6977 100.095 18.6977L99.9434 29.8523L95.7125 29.8753V9.52559C95.7125 4.97791 97.1808 3.09037 100.697 1.36011C101.534 1.03856 102.346 0.766727 103.431 0.49323C107.834 -0.616537 115.032 0.49323 115.032 0.49323V4.70229Z" fill="black"/>
<path d="M125.356 1.69348H137.18C138.545 1.92316 139.717 2.35955 140.696 3.00266C142.241 4.04388 143.4 5.75883 144.173 8.14751C144.289 8.62218 144.405 9.26529 144.521 10.0768C144.482 11.0415 144.463 12.2052 144.463 13.568C144.463 13.568 144.463 17.6834 144.303 18.6977C142.635 19.1312 121.724 18.8047 121.724 18.8047V20.8948C121.724 22.4413 122.381 23.651 123.695 24.5237C124.12 24.7994 124.577 24.9372 125.067 24.9372C125.067 24.9372 143.112 15.8482 143.886 23.4656C143.95 24.0908 143.922 24.9984 143.922 25.075V29.8294C143.922 29.9212 143.883 29.9672 143.806 29.9672H125.067C122.31 29.9672 120.095 28.3594 118.421 25.1439C117.803 23.7811 117.494 22.2958 117.494 20.6881V11.5927C117.494 7.04504 119.252 3.90607 122.768 2.17581C123.605 1.85425 124.468 1.69348 125.356 1.69348ZM121.724 13.4991V13.8436H140.29V10.7659C140.29 8.91311 139.369 7.60393 137.527 6.83833C137.192 6.79239 136.922 6.76942 136.716 6.76942H125.414C125.26 6.76942 125.047 6.74645 124.777 6.70052C124.133 6.70052 123.367 7.22878 122.478 8.28532C121.976 8.95905 121.724 10.697 121.724 13.4991Z" fill="black"/>
<path d="M156.932 1.99206H168.736C170.513 2.31361 171.885 2.9261 172.851 3.82951C174.95 5.7282 176 8.43078 176 11.9372V29.8294C176 29.9212 175.961 29.9672 175.884 29.9672H171.943C171.866 29.9672 170.853 30.0408 170.161 29.9672C163.365 29.244 171.827 11.8683 171.827 11.8683C171.827 9.61747 171.138 8.11688 169.76 7.36659C169.361 7.09097 168.504 6.95317 167.191 6.95317H156.99C155.239 6.95317 154.073 8.04798 153.493 10.2376C153.455 10.5438 153.435 10.7888 153.435 10.9726C153.435 10.9726 162.28 29.2255 155.147 29.9672C154.437 30.041 153.397 29.9672 153.319 29.9672H149.32C149.243 29.9672 149.205 29.9212 149.205 29.8294V11.7994C149.205 7.38956 150.866 4.32715 154.189 2.6122C155.052 2.19877 155.966 1.99206 156.932 1.99206Z" fill="black"/>
</svg>
